<svg viewBox="-10 -3475 25127 4871" xmlns="http://www.w3.org/2000/svg">
<g fill="black" stroke="none">
<g transform="translate(0, 0) scale(1, -1)">
<path d="M565,1348 L519,1154 L342,1154 L388,1348 L565,1348 M243,674 Q266,774,266,824 Q266,869,244,885 Q223,901,160,903 L171,956 L415,965 L474,965 L330,323 Q308,225,308,175 Q308,135,321,117 Q334,99,362,99 Q392,99,426,123 Q460,148,522,217 L579,161 Q481,58,420,21 Q359,-16,283,-16 Q218,-16,179,31 Q140,79,140,153 Q140,229,168,347 L243,674 z"/>
</g>
<g transform="translate(714, 0)">
<g transform="translate(0, 0) scale(1, -1)">
<path d="M178,1018 L374,1098 L390,1169 Q408,1256,408,1291 Q408,1333,382,1350 Q357,1367,291,1369 L303,1421 L556,1430 L614,1430 L550,1172 L803,1281 L839,1200 L524,1068 L442,737 L454,733 Q548,858,633,915 Q718,972,806,972 Q900,972,950,919 Q1001,866,1001,770 Q1001,707,972,591 L907,329 Q880,220,880,175 Q880,135,893,117 Q906,99,934,99 Q964,99,998,123 Q1032,148,1094,217 L1151,161 Q1070,77,1027,44 Q984,11,944,-2 Q905,-16,855,-16 Q790,-16,751,30 Q712,77,712,149 Q712,214,745,340 L789,513 Q813,607,820,652 Q828,697,828,725 Q828,795,804,825 Q781,855,728,855 Q686,855,635,821 Q585,787,530,717 Q475,648,442,584 Q410,521,391,433 L300,0 L127,0 L351,996 L214,937 L178,1018 z"/>
</g>
</g>
<g transform="translate(1919, 0)">
<g transform="translate(568, 0)">
<g transform="translate(446, -1550)">
<g transform="translate(0, 0) scale(1, -1)">
<path d="M855,875 L857,900 Q860,948,860,983 Q860,1172,810,1257 Q760,1343,654,1343 Q581,1343,518,1308 Q456,1274,396,1202 L324,1202 L324,1285 Q419,1352,471,1380 Q524,1409,576,1423 Q629,1437,691,1437 Q858,1437,941,1323 Q1024,1210,1024,980 Q1024,889,1008,763 Q992,638,954,502 Q916,366,866,271 Q816,176,755,114 Q694,52,614,18 Q535,-16,435,-16 Q285,-16,197,74 Q110,164,110,338 Q110,495,176,640 Q242,785,357,870 Q472,956,609,956 Q681,956,735,939 Q789,923,855,875 M807,683 Q807,785,765,831 Q724,877,639,877 Q546,877,466,803 Q387,730,337,583 Q287,436,287,292 Q287,202,306,151 Q326,101,358,82 Q390,63,438,63 Q546,63,622,149 Q699,236,753,409 Q807,583,807,683 z"/>
</g>
</g>
<g transform="translate(0, 1370)">
<g transform="translate(0, 0) scale(1, -1)">
<path d="M855,875 L857,900 Q860,948,860,983 Q860,1172,810,1257 Q760,1343,654,1343 Q581,1343,518,1308 Q456,1274,396,1202 L324,1202 L324,1285 Q419,1352,471,1380 Q524,1409,576,1423 Q629,1437,691,1437 Q858,1437,941,1323 Q1024,1210,1024,980 Q1024,889,1008,763 Q992,638,954,502 Q916,366,866,271 Q816,176,755,114 Q694,52,614,18 Q535,-16,435,-16 Q285,-16,197,74 Q110,164,110,338 Q110,495,176,640 Q242,785,357,870 Q472,956,609,956 Q681,956,735,939 Q789,923,855,875 M807,683 Q807,785,765,831 Q724,877,639,877 Q546,877,466,803 Q387,730,337,583 Q287,436,287,292 Q287,202,306,151 Q326,101,358,82 Q390,63,438,63 Q546,63,622,149 Q699,236,753,409 Q807,583,807,683 z"/>
</g>
<g transform="translate(1139, 0)">
<g transform="translate(0, 0) scale(1, -1)">
<path d="M695,189 Q608,84,527,34 Q447,-16,359,-16 Q150,-16,150,195 Q150,262,167,336 L285,855 L117,855 L132,924 Q191,925,221,933 Q252,941,272,955 Q293,969,310,995 Q327,1021,343,1061 Q359,1102,391,1203 L529,1203 L474,956 L778,956 L756,855 L452,855 L363,467 Q337,354,330,304 Q323,255,323,225 Q323,101,426,101 Q470,101,519,134 Q569,168,637,249 L695,189 z"/>
</g>
</g>
</g>
</g>
</g>
<g transform="translate(5002, 0)">
<g transform="translate(0, 0) scale(1, -1)">
<path d="M768,588 Q904,593,986,633 Q1069,674,1119,758 Q1169,843,1202,997 L1283,1365 L1546,1365 L1535,1316 Q1496,1306,1475,1287 Q1454,1269,1438,1227 Q1422,1185,1407,1114 L1372,960 Q1340,818,1293,735 Q1246,652,1175,603 Q1105,554,1000,529 Q896,505,749,501 L703,291 Q690,230,686,196 Q682,162,682,135 Q682,90,704,71 Q727,53,780,49 L769,0 L369,0 L380,49 Q418,55,437,68 Q456,82,469,106 Q482,130,493,164 Q504,199,526,298 L571,501 Q355,508,242,583 Q129,658,129,799 Q129,875,150,972 L173,1078 Q186,1136,190,1167 Q195,1199,195,1228 Q195,1272,175,1291 Q155,1310,109,1316 L120,1365 L413,1365 L328,975 Q312,903,307,862 Q302,821,302,790 Q302,684,370,638 Q439,592,590,589 L696,1068 Q718,1167,718,1229 Q718,1276,694,1294 Q671,1313,620,1316 L631,1365 L1031,1365 L1020,1316 Q982,1308,965,1298 Q949,1288,935,1268 Q922,1248,908,1205 Q895,1163,874,1067 L768,588 z"/>
</g>
<g transform="translate(1445, 418)">
<g transform="translate(0, 0) scale(0.73, -0.73)">
<path d="M772,193 Q721,136,675,96 Q629,56,585,30 Q541,5,498,-6 Q455,-18,410,-18 Q291,-18,232,38 Q174,94,174,203 Q174,240,179,284 Q185,329,195,371 L314,889 L142,889 L162,966 Q222,966,255,977 Q289,989,312,1009 Q327,1023,341,1043 Q355,1064,369,1093 Q383,1122,397,1161 Q412,1201,430,1254 L586,1254 L529,1000 L869,1000 L846,889 L507,889 L405,470 Q395,428,388,394 Q382,361,378,334 Q374,307,372,285 Q371,263,371,244 Q371,184,396,150 Q421,116,478,116 Q526,116,580,151 Q634,187,703,263 L772,193 z"/>
</g>
</g>
</g>
<g transform="translate(7190, 0)">
<g transform="translate(568, 0)">
<g transform="translate(0, 0) scale(1, -1)">
<path d="M149,726 L149,859 L1381,859 L1381,726 L149,726 M149,311 L149,444 L1381,444 L1381,311 L149,311 M1423,585 L1423,585 z"/>
</g>
</g>
</g>
<g transform="translate(9856, 0)">
<g transform="translate(0, -1550)">
<g transform="translate(0, 0) scale(1, -1)">
<path d="M149,519 L149,652 L1381,652 L1381,519 L149,519 z"/>
</g>
<g transform="translate(1530, 0)">
<g transform="translate(0, 0) scale(1, -1)">
<path d="M349,1143 Q373,1250,373,1291 Q373,1333,347,1350 Q322,1367,256,1369 L268,1421 L521,1430 L579,1430 L407,737 L419,733 Q514,859,598,915 Q683,972,769,972 Q862,972,912,918 Q962,865,962,770 Q962,707,933,591 L868,329 Q841,220,841,175 Q841,135,854,117 Q867,99,895,99 Q925,99,959,123 Q993,148,1055,217 L1112,161 Q1016,60,954,22 Q893,-16,816,-16 Q751,-16,712,30 Q674,76,674,149 Q674,214,707,340 L750,513 Q773,606,781,652 Q789,699,789,725 Q789,796,766,825 Q743,855,691,855 Q650,855,600,821 Q550,787,495,717 Q440,648,407,584 Q375,521,356,433 L265,0 L92,0 L349,1143 z"/>
</g>
<g transform="translate(1171, -970)">
<g transform="translate(0, 0) scale(0.73, -0.73)">
<path d="M726,163 Q773,163,801,166 Q829,170,847,182 Q866,194,879,218 Q892,243,909,286 L1002,286 Q997,215,992,143 Q988,71,983,0 L136,0 L136,52 Q160,106,192,158 Q224,211,264,265 Q304,319,355,376 Q406,434,468,496 Q562,590,621,656 Q680,723,714,775 Q748,827,760,871 Q773,915,773,965 Q773,1016,758,1059 Q744,1102,717,1132 Q690,1162,648,1179 Q607,1196,553,1196 Q460,1196,397,1145 Q334,1095,299,999 L168,999 L168,1194 Q296,1247,403,1271 Q511,1295,597,1295 Q701,1295,774,1271 Q848,1248,894,1208 Q940,1168,960,1112 Q981,1056,981,991 Q981,952,975,918 Q970,885,956,852 Q943,820,921,787 Q899,754,866,717 Q841,685,801,643 Q761,601,713,553 Q666,505,614,453 Q562,401,513,350 Q464,299,423,251 Q382,203,356,163 L726,163 z"/>
</g>
</g>
</g>
</g>
<g transform="translate(412, 1370)">
<g transform="translate(0, 0) scale(1, -1)">
<path d="M702,160 Q751,160,781,166 Q811,172,829,186 Q847,200,857,222 Q868,245,884,292 L969,292 L952,0 L129,0 L129,48 Q172,153,245,263 Q318,373,452,522 Q568,650,619,716 Q675,788,702,840 Q730,893,742,939 Q754,986,754,1033 Q754,1108,730,1165 Q706,1223,656,1256 Q607,1289,532,1289 Q345,1289,280,1081 L159,1081 L159,1273 Q280,1330,385,1355 Q491,1381,575,1381 Q761,1381,856,1299 Q951,1218,951,1063 Q951,1010,940,965 Q930,921,907,877 Q885,834,847,784 Q809,734,763,682 Q717,631,604,511 Q414,310,325,160 L702,160 z"/>
</g>
<g transform="translate(1134, 0)">
<g transform="translate(0, 0) scale(1, -1)">
<path d="M440,702 Q532,839,623,905 Q714,972,807,972 Q903,972,953,917 Q1003,863,1003,760 L1003,746 Q1003,739,1002,731 Q1088,853,1173,912 Q1259,972,1351,972 Q1443,972,1493,919 Q1543,866,1543,770 Q1543,707,1514,591 L1449,329 Q1422,220,1422,175 Q1422,135,1435,117 Q1448,99,1476,99 Q1506,99,1540,123 Q1574,148,1636,217 L1693,161 Q1607,70,1543,27 Q1479,-16,1397,-16 Q1332,-16,1293,30 Q1254,77,1254,149 Q1254,214,1287,340 L1331,513 Q1355,607,1362,652 Q1370,697,1370,725 Q1370,794,1347,824 Q1324,855,1272,855 Q1230,855,1182,823 Q1134,792,1081,725 Q1028,659,994,594 Q961,530,941,437 L850,0 L677,0 L792,508 Q813,601,820,645 Q828,690,828,722 Q828,794,802,824 Q777,855,723,855 Q685,855,636,823 Q588,792,533,722 Q478,653,447,589 Q416,525,395,433 L300,0 L127,0 L273,634 Q295,730,295,782 Q295,822,282,840 Q269,858,241,858 Q210,858,175,832 Q141,807,81,740 L24,796 Q112,888,175,930 Q239,973,315,973 Q378,973,414,931 Q451,890,451,823 Q451,768,428,706 L440,702 z"/>
</g>
</g>
</g>
</g>
<g transform="translate(13542, 0)">
<g transform="translate(568, 0)">
<g transform="translate(420, -404)">
<g transform="translate(0, 0) scale(1, -1)">
<path d="M754,1337 L503,1120 L450,1180 L610,1319 L0,1319 L0,1413 L610,1413 L450,1552 L503,1612 L754,1395 L754,1337 z"/>
</g>
</g>
<g transform="translate(0, 0) scale(1, -1)">
<path d="M1240,1380 L1227,1316 L436,-1 L295,-1 L177,1316 L190,1380 L1240,1380 M1029,1230 L365,1230 L407,657 Q430,343,430,220 L442,220 L1029,1230 z"/>
</g>
<g transform="translate(1317, -1556)">
<g transform="translate(0, 0) scale(0.73, -0.73)">
<path d="M726,163 Q773,163,801,166 Q829,170,847,182 Q866,194,879,218 Q892,243,909,286 L1002,286 Q997,215,992,143 Q988,71,983,0 L136,0 L136,52 Q160,106,192,158 Q224,211,264,265 Q304,319,355,376 Q406,434,468,496 Q562,590,621,656 Q680,723,714,775 Q748,827,760,871 Q773,915,773,965 Q773,1016,758,1059 Q744,1102,717,1132 Q690,1162,648,1179 Q607,1196,553,1196 Q460,1196,397,1145 Q334,1095,299,999 L168,999 L168,1194 Q296,1247,403,1271 Q511,1295,597,1295 Q701,1295,774,1271 Q848,1248,894,1208 Q940,1168,960,1112 Q981,1056,981,991 Q981,952,975,918 Q970,885,956,852 Q943,820,921,787 Q899,754,866,717 Q841,685,801,643 Q761,601,713,553 Q666,505,614,453 Q562,401,513,350 Q464,299,423,251 Q382,203,356,163 L726,163 z"/>
</g>
</g>
</g>
</g>
<g transform="translate(16945, 0)">
<g transform="translate(0, 0) scale(1, -1)">
<path d="M768,588 Q904,593,986,633 Q1069,674,1119,758 Q1169,843,1202,997 L1283,1365 L1546,1365 L1535,1316 Q1496,1306,1475,1287 Q1454,1269,1438,1227 Q1422,1185,1407,1114 L1372,960 Q1340,818,1293,735 Q1246,652,1175,603 Q1105,554,1000,529 Q896,505,749,501 L703,291 Q690,230,686,196 Q682,162,682,135 Q682,90,704,71 Q727,53,780,49 L769,0 L369,0 L380,49 Q418,55,437,68 Q456,82,469,106 Q482,130,493,164 Q504,199,526,298 L571,501 Q355,508,242,583 Q129,658,129,799 Q129,875,150,972 L173,1078 Q186,1136,190,1167 Q195,1199,195,1228 Q195,1272,175,1291 Q155,1310,109,1316 L120,1365 L413,1365 L328,975 Q312,903,307,862 Q302,821,302,790 Q302,684,370,638 Q439,592,590,589 L696,1068 Q718,1167,718,1229 Q718,1276,694,1294 Q671,1313,620,1316 L631,1365 L1031,1365 L1020,1316 Q982,1308,965,1298 Q949,1288,935,1268 Q922,1248,908,1205 Q895,1163,874,1067 L768,588 z"/>
</g>
<g transform="translate(1445, 418)">
<g transform="translate(0, 0) scale(0.73, -0.73)">
<path d="M772,193 Q721,136,675,96 Q629,56,585,30 Q541,5,498,-6 Q455,-18,410,-18 Q291,-18,232,38 Q174,94,174,203 Q174,240,179,284 Q185,329,195,371 L314,889 L142,889 L162,966 Q222,966,255,977 Q289,989,312,1009 Q327,1023,341,1043 Q355,1064,369,1093 Q383,1122,397,1161 Q412,1201,430,1254 L586,1254 L529,1000 L869,1000 L846,889 L507,889 L405,470 Q395,428,388,394 Q382,361,378,334 Q374,307,372,285 Q371,263,371,244 Q371,184,396,150 Q421,116,478,116 Q526,116,580,151 Q634,187,703,263 L772,193 z"/>
</g>
</g>
</g>
<g transform="translate(19133, 0)">
<g transform="translate(455, 0)">
<g transform="translate(0, 0) scale(1, -1)">
<path d="M836,519 L836,-57 L694,-57 L694,519 L149,519 L149,652 L694,652 L694,1228 L836,1228 L836,652 L1381,652 L1381,519 L836,519 z"/>
</g>
</g>
</g>
<g transform="translate(21573, 0)">
<g transform="translate(419, -389)">
<g transform="translate(0, 0) scale(1, -1)">
<path d="M374,1381 L602,1127 L545,1069 L307,1254 L296,1254 L56,1069 L0,1127 L240,1381 L374,1381 z"/>
</g>
</g>
<g transform="translate(0, 0) scale(1, -1)">
<path d="M520,1365 L509,1316 Q465,1311,440,1290 Q416,1269,406,1231 Q396,1194,396,1131 Q396,1116,399,1041 L427,309 L427,229 L437,229 L870,1010 Q908,1079,927,1128 Q946,1178,946,1216 Q946,1300,846,1316 L857,1365 L1266,1365 L1255,1316 Q1228,1312,1203,1295 Q1179,1279,1148,1240 Q1118,1202,1054,1092 L414,-16 L281,-16 L214,1099 Q210,1164,199,1210 Q189,1257,166,1283 Q144,1309,95,1316 L106,1365 L520,1365 z"/>
</g>
</g>
<g transform="translate(22919, 0)">
<g transform="translate(0, 0) scale(1, -1)">
<path d="M768,588 Q904,593,986,633 Q1069,674,1119,758 Q1169,843,1202,997 L1283,1365 L1546,1365 L1535,1316 Q1496,1306,1475,1287 Q1454,1269,1438,1227 Q1422,1185,1407,1114 L1372,960 Q1340,818,1293,735 Q1246,652,1175,603 Q1105,554,1000,529 Q896,505,749,501 L703,291 Q690,230,686,196 Q682,162,682,135 Q682,90,704,71 Q727,53,780,49 L769,0 L369,0 L380,49 Q418,55,437,68 Q456,82,469,106 Q482,130,493,164 Q504,199,526,298 L571,501 Q355,508,242,583 Q129,658,129,799 Q129,875,150,972 L173,1078 Q186,1136,190,1167 Q195,1199,195,1228 Q195,1272,175,1291 Q155,1310,109,1316 L120,1365 L413,1365 L328,975 Q312,903,307,862 Q302,821,302,790 Q302,684,370,638 Q439,592,590,589 L696,1068 Q718,1167,718,1229 Q718,1276,694,1294 Q671,1313,620,1316 L631,1365 L1031,1365 L1020,1316 Q982,1308,965,1298 Q949,1288,935,1268 Q922,1248,908,1205 Q895,1163,874,1067 L768,588 z"/>
</g>
<g transform="translate(1445, 418)">
<g transform="translate(0, 0) scale(0.73, -0.73)">
<path d="M772,193 Q721,136,675,96 Q629,56,585,30 Q541,5,498,-6 Q455,-18,410,-18 Q291,-18,232,38 Q174,94,174,203 Q174,240,179,284 Q185,329,195,371 L314,889 L142,889 L162,966 Q222,966,255,977 Q289,989,312,1009 Q327,1023,341,1043 Q355,1064,369,1093 Q383,1122,397,1161 Q412,1201,430,1254 L586,1254 L529,1000 L869,1000 L846,889 L507,889 L405,470 Q395,428,388,394 Q382,361,378,334 Q374,307,372,285 Q371,263,371,244 Q371,184,396,150 Q421,116,478,116 Q526,116,580,151 Q634,187,703,263 L772,193 z"/>
</g>
</g>
</g>
<g transform="translate(714, 0)"/>
<g transform="translate(1919, 0)">
<g transform="translate(568, 0)">
<g transform="translate(446, -1550)"/>
<line stroke="black" stroke-width="133" x1="110" x2="1917" y1="-585" y2="-585" z-index="1"/>
<g transform="translate(0, 1370)">
<g transform="translate(1139, 0)"/>
</g>
</g>
</g>
<g transform="translate(5002, 0)">
<g transform="translate(1445, 418)"/>
</g>
<g transform="translate(7190, 0)">
<g transform="translate(568, 0)"/>
</g>
<g transform="translate(9856, 0)">
<g transform="translate(0, -1550)">
<g transform="translate(1530, 0)">
<g transform="translate(1171, -970)"/>
</g>
</g>
<line stroke="black" stroke-width="133" x1="149" x2="3651" y1="-585" y2="-585" z-index="1"/>
<g transform="translate(412, 1370)">
<g transform="translate(1134, 0)"/>
</g>
</g>
<g transform="translate(13542, 0)">
<g transform="translate(568, 0)">
<g transform="translate(420, -404)"/>
<g transform="translate(1317, -1556)"/>
</g>
</g>
<g transform="translate(16945, 0)">
<g transform="translate(1445, 418)"/>
</g>
<g transform="translate(19133, 0)">
<g transform="translate(455, 0)"/>
</g>
<g transform="translate(21573, 0)">
<g transform="translate(419, -389)"/>
</g>
<g transform="translate(22919, 0)">
<g transform="translate(1445, 418)"/>
</g>
</g>
</svg>